<svg width="249" height="29" viewBox="0 0 249 29" fill="none" xmlns="http://www.w3.org/2000/svg">
<path d="M25.3608 15.2255C25.3608 8.30288 19.6718 2.67056 12.6794 2.67056C5.68708 2.67056 0 8.30479 0 15.2255C0 22.1463 5.68901 27.7805 12.6814 27.7805C13.8861 27.7805 15.0772 27.6139 16.2239 27.2827L17.6201 26.8807L14.8239 23.2567L14.2225 23.3677C13.7178 23.4615 13.1996 23.5074 12.6814 23.5074C8.06749 23.5074 4.31413 19.7915 4.31413 15.2236C4.31413 10.6557 8.06749 6.93979 12.6814 6.93979C17.2952 6.93979 21.0486 10.6557 21.0486 15.2236C21.0486 17.1591 20.3544 19.0315 19.1187 20.5094H14.4352L20.1591 27.658L20.1842 27.6618L20.2789 27.7786H26.0337L22.4176 23.2643C24.305 21.0244 25.3608 18.1834 25.3608 15.2255Z" fill="#004989"/>
<path d="M161.624 2.55957C160.237 2.55957 159.089 3.02287 158.18 3.94946C157.271 4.85883 156.816 5.98644 156.816 7.3323C156.816 8.66092 157.271 9.78854 158.18 10.7151C159.089 11.6417 160.237 12.105 161.624 12.105C163 12.105 164.145 11.6417 165.054 10.7151C165.973 9.77896 166.431 8.65135 166.431 7.3323C166.431 6.00367 165.971 4.87606 165.054 3.94946C164.145 3.02287 163 2.55957 161.624 2.55957ZM163.664 9.48414C163.116 10.0527 162.436 10.3361 161.624 10.3361C160.802 10.3361 160.117 10.0527 159.57 9.48414C159.031 8.92512 158.762 8.2072 158.762 7.33421C158.762 6.46122 159.031 5.7433 159.57 5.18428C160.117 4.61569 160.802 4.33235 161.624 4.33235C162.436 4.33235 163.116 4.61569 163.664 5.18428C164.211 5.75287 164.486 6.46888 164.486 7.33421C164.486 8.19763 164.211 8.91555 163.664 9.48414Z" fill="#004989"/>
<path d="M174.563 3.51685C173.989 3.00186 173.203 2.74341 172.206 2.74341H168.153V11.9232H170.059V8.28957H172.206C173.203 8.28957 173.989 8.03112 174.563 7.51613C175.145 7.0088 175.437 6.34066 175.437 5.50979C175.439 4.68849 175.147 4.02418 174.563 3.51685ZM173.145 6.38086C172.89 6.57805 172.532 6.67569 172.072 6.67569H170.059V4.39558H172.072C172.531 4.39558 172.888 4.49322 173.145 4.6904C173.401 4.88759 173.53 5.16902 173.53 5.53659C173.53 5.90417 173.403 6.18559 173.145 6.38086Z" fill="#004989"/>
<path d="M178.802 10.1657C178.572 10.3399 178.262 10.428 177.873 10.428C177.458 10.428 177.1 10.3457 176.8 10.1791V11.8447C177.1 12.0189 177.568 12.107 178.204 12.107C179.459 12.107 180.43 11.3814 181.118 9.93026L184.535 2.74341H182.509L180.455 7.25385L178.109 2.74341H176.007L179.517 9.15682C179.262 9.66223 179.022 9.99918 178.802 10.1657Z" fill="#004989"/>
<path d="M184.458 11.9232H186.935L190.247 7.87031V11.9232H192.154V7.87031L195.466 11.9232H197.957L194.022 7.16196L197.559 2.74341H195.215L192.154 6.6106V2.74341H190.247V6.6106L187.2 2.74341H184.856L188.379 7.16196L184.458 11.9232Z" fill="#004989"/>
<path d="M206.009 10.2308H200.962V7.87031H204.911V6.20474H200.962V4.43387H205.864V2.74341H199.055V11.9232H206.009V10.2308Z" fill="#004989"/>
<path d="M211.546 2.24374C212.252 2.24374 212.83 2.0408 213.281 1.63303C213.731 1.22716 213.961 0.681544 213.969 0H212.565C212.555 0.289082 212.459 0.52073 212.273 0.694946C212.087 0.869161 211.84 0.957225 211.531 0.957225C211.221 0.957225 210.976 0.869161 210.796 0.694946C210.614 0.52073 210.525 0.289082 210.525 0H209.121C209.131 0.681544 209.359 1.22525 209.81 1.63303C210.26 2.0408 210.838 2.24374 211.546 2.24374Z" fill="#004989"/>
<path d="M213.677 5.90201V11.923H215.572V2.74316H213.93L209.438 8.72199V2.74316H207.531V11.923H209.134L213.677 5.90201Z" fill="#004989"/>
<path d="M223.718 6.17769H219.532V2.74316H217.625V11.923H219.532V7.89687H223.718V11.923H225.611V2.74316H223.718V6.17769Z" fill="#004989"/>
<path d="M233.92 6.63716C233.276 6.06091 232.402 5.77182 231.298 5.77182H229.575V2.74316H227.668V11.923H231.298C232.392 11.923 233.266 11.6396 233.92 11.071C234.564 10.512 234.887 9.77303 234.887 8.85409C234.887 7.93515 234.564 7.19618 233.92 6.63716ZM232.496 9.88215C232.183 10.131 231.748 10.2555 231.191 10.2555H229.575V7.37231H231.191C231.748 7.37231 232.181 7.49866 232.496 7.75328C232.81 8.0079 232.966 8.36591 232.966 8.8292C232.966 9.28293 232.81 9.63327 232.496 9.88215Z" fill="#004989"/>
<path d="M237.906 2.74341H235.999V11.9232H237.906V2.74341Z" fill="#004989"/>
<path d="M246.358 2.74316L241.868 8.72199V2.74316H239.961V11.923H241.564L246.106 5.90201V11.923H248.001V2.74316H246.358Z" fill="#004989"/>
<path d="M243.972 2.24374C244.678 2.24374 245.256 2.0408 245.707 1.63303C246.157 1.22716 246.387 0.681544 246.395 0H244.991C244.981 0.289082 244.885 0.52073 244.699 0.694946C244.514 0.869161 244.266 0.957225 243.957 0.957225C243.647 0.957225 243.402 0.869161 243.222 0.694946C243.04 0.52073 242.951 0.289082 242.951 0H241.547C241.557 0.681544 241.785 1.22525 242.236 1.63303C242.688 2.0408 243.266 2.24374 243.972 2.24374Z" fill="#004989"/>
<path d="M164.788 17.5769H162.458L159.039 21.1952V17.5769H157.132V26.7567H159.039V22.52L163.026 26.7567H165.465L160.855 21.7849L164.788 17.5769Z" fill="#004989"/>
<path d="M172.484 21.6928C172.819 21.5531 173.097 21.3252 173.32 21.0113C173.54 20.6973 173.65 20.3163 173.65 19.8703C173.65 19.1447 173.397 18.5799 172.888 18.1779C172.38 17.7758 171.699 17.5748 170.842 17.5748H166.484V26.7546H171.146C172.134 26.7546 172.917 26.5153 173.49 26.0329C174.072 25.5523 174.364 24.9225 174.364 24.1452C174.364 23.4809 174.178 22.9353 173.807 22.5065C173.43 22.07 172.987 21.7981 172.484 21.6928ZM168.39 19.1504H170.537C170.935 19.1504 171.247 19.2404 171.471 19.4184C171.695 19.5984 171.809 19.8492 171.809 20.1727C171.809 20.4886 171.697 20.7318 171.471 20.9079C171.247 21.0821 170.935 21.1702 170.537 21.1702H168.39V19.1504ZM171.902 24.821C171.637 25.0259 171.266 25.1293 170.79 25.1293H168.392V22.7285H170.79C171.268 22.7285 171.637 22.8338 171.902 23.0425C172.167 23.2531 172.3 23.5498 172.3 23.9346C172.299 24.3214 172.167 24.6162 171.902 24.821Z" fill="#004989"/>
<path d="M179.134 17.5226L175.16 26.7541H177.16L178.074 24.6291H181.996L182.911 26.7541H184.937L180.963 17.5226H179.134ZM178.67 23.0707L180.035 19.8832L181.387 23.0707H178.67Z" fill="#004989"/>
<path d="M192.577 18.3503C192.003 17.8354 191.218 17.5769 190.22 17.5769H186.167V26.7567H188.074V23.125H190.22C191.218 23.125 192.003 22.8665 192.577 22.3515C193.16 21.8442 193.451 21.1761 193.451 20.3452C193.451 19.522 193.161 18.8577 192.577 18.3503ZM191.16 21.2144C190.905 21.4115 190.547 21.5092 190.087 21.5092H188.074V19.2272H190.087C190.545 19.2272 190.903 19.3248 191.16 19.522C191.415 19.7192 191.545 20.0006 191.545 20.3682C191.545 20.7357 191.417 21.0191 191.16 21.2144Z" fill="#004989"/>
<path d="M202.049 17.5769H194.273V19.2674H197.201V26.7567H199.108V19.2674H202.049V17.5769Z" fill="#004989"/>
<path d="M205.306 17.5225L201.332 26.754H203.331L204.246 24.6289H208.168L209.082 26.754H211.109L207.135 17.5225H205.306ZM204.842 23.0705L206.207 19.883L207.559 23.0705H204.842Z" fill="#004989"/>
<path d="M213.4 20.2648C213.373 22.1103 213.272 23.3777 213.096 24.0688C212.92 24.7427 212.584 25.0777 212.089 25.0777C211.833 25.0777 211.607 25.0433 211.414 24.9724V26.6763C211.599 26.7548 211.86 26.795 212.195 26.795C213.289 26.795 214.053 26.3891 214.486 25.5755C214.91 24.7714 215.157 23.2896 215.229 21.1301L215.281 19.2674H218.089V26.7548H219.984V17.5769H213.44L213.4 20.2648Z" fill="#004989"/>
<path d="M46.3605 17.8198C46.3605 19.6768 45.8674 21.105 44.8831 22.1024C43.8989 23.0999 42.5723 23.5995 40.9035 23.5995C39.2579 23.5995 37.943 23.0999 36.9587 22.1024C35.9745 21.105 35.4814 19.6768 35.4814 17.8198V3.67969H30.5117V17.6475C30.5117 20.9959 31.4844 23.5995 33.4297 25.4566C35.375 27.3136 37.8657 28.244 40.8997 28.244C43.9569 28.244 46.4591 27.3155 48.4044 25.4566C50.373 23.5995 51.3572 20.9959 51.3572 17.6475V3.67969H46.3528V17.8198H46.3605Z" fill="#004989"/>
<path d="M64.6716 3.54166L54.2469 27.7614H59.4931L61.8909 22.1884H72.1764L74.5742 27.7614H79.89L69.4653 3.54166H64.6716ZM63.4553 18.0953L67.0346 9.7349L70.5791 18.0953H63.4553Z" fill="#004989"/>
<path d="M101.42 14.9802C102.311 13.799 102.758 12.4053 102.758 10.801C102.758 8.69127 102.006 6.98167 100.499 5.67601C99.0163 4.34547 96.9782 3.68115 94.3831 3.68115H83.125V27.7611H88.1295V18.0261H92.3334L99.4205 27.7611H105.224L97.7188 17.4748C99.2928 16.9942 100.527 16.1615 101.42 14.9802ZM96.7635 13.106C96.1254 13.6114 95.2398 13.8622 94.1047 13.8622H88.1275V8.01355H94.1047C95.2398 8.01355 96.1254 8.27201 96.7635 8.78699C97.3997 9.30389 97.7188 10.0199 97.7188 10.9369C97.7188 11.8788 97.3997 12.6025 96.7635 13.106Z" fill="#004989"/>
<path d="M126.21 3.67966H105.813V8.11735H113.492V27.7615H118.497V8.11735H126.21V3.67966Z" fill="#004989"/>
<path d="M134.757 3.54166L124.332 27.7614H129.579L131.976 22.1884H142.262L144.662 27.7614H149.977L139.553 3.54166H134.757ZM133.541 18.0953L137.12 9.7349L140.665 18.0953H133.541Z" fill="#004989"/>
</svg>
